<mxfile
  host="Electron" 
  agent="Mozilla/5.0 (Macintosh; Intel Mac OS X 10_15_7) AppleWebKit/537.36 (KHTML, like Gecko) draw.io/25.0.2 Chrome/128.0.6613.186 Electron/32.2.5 Safari/537.36" 
  version="25.0.2"
  >
  <diagram
    name="-"
    >
    <mxGraphModel
      grid="1" 
      gridSize="10" 
      guides="1" 
      tooltips="1" 
      connect="1" 
      arrows="1" 
      fold="1" 
      page="1" 
      pageScale="1" 
      pageWidth="1" 
      pageHeight="1" 
      math="0" 
      shadow="0"
      >
      <root>
        <mxCell
          id="page"
          />
        <mxCell
          id="root" 
          parent="page"
          />
        <mxCell
          style="verticalAlign=top;aspect=fixed;align=center;spacingLeft=5;spacingRight=5;spacingBottom=5;strokeColor=none;" 
          id="shape_" 
          parent="root" 
          value=" " 
          vertex="1"
          >
          <mxGeometry
            as="geometry" 
            width="85" 
            height="88" 
            x="0" 
            y="0"
            />
          </mxCell>
        <mxCell
          style="rounded=1;whiteSpace=wrap;verticalAlign=top;align=center;shape=image;editableCssRules=.*;verticalLabelPosition=bottom;labelBackgroundColor=default;aspect=fixed;imageAspect=0;image=data:image/svg+xml,PHN2ZyB4bWxucz0iaHR0cDovL3d3dy53My5vcmcvMjAwMC9zdmciIHZpZXdCb3g9Ii0wLjUgLTAuNSAyNS4yIDI4IiBoZWlnaHQ9IjI4IiB3aWR0aD0iMjUuMiI+JiN4YTsJICA8c3R5bGUgdHlwZT0idGV4dC9jc3MiPiYjeGE7CQkuc3Qwe3N0b3AtY29sb3I6IzAwY2VhYzt9JiN4YTsJCS5zdDF7c3RvcC1jb2xvcjojMDc4MzhmO30mI3hhOwkgIDwvc3R5bGU+JiN4YTsJPGRlZnM+JiN4YTsJCTxsaW5lYXJHcmFkaWVudCBncmFkaWVudFVuaXRzPSJ1c2VyU3BhY2VPblVzZSIgeTI9IjIzLjA1NyIgeDI9IjIzLjEyNiIgeTE9IjMuNDc0IiB4MT0iMS43ODUiIGlkPSJBIj4mI3hhOwkJCTxzdG9wIGNsYXNzPSJzdDAiLz4mI3hhOwkJCTxzdG9wIGNsYXNzPSJzdDEiIG9mZnNldD0iMSIvPiYjeGE7CQk8L2xpbmVhckdyYWRpZW50PiYjeGE7CTwvZGVmcz4mI3hhOwk8cGF0aCBmaWxsPSJ1cmwoI0EpIiBkPSJNMTEuNzU3LS40ODNDMTEuNDQ1LS40MDEuMTg0IDQuNzExLjAyIDQuODM3YTEuNzkgMS43OSAwIDAgMC0uMzU2LjQ3MWwtLjE2NC4zMjN2Ny44ODJWMjEuNGwuMTM3LjI2OGMuMDc3LjE0OC4yMjQuMzQ1LjMzOS40MzguMTMxLjExNSAyLjE3MiAxLjA2MiA1Ljk1OSAyLjc2NCA2LjE4MyAyLjc4MSA2LjA3NCAyLjczNyA2LjU3NyAyLjU2Mi4zOTktLjEzNyAxMS4zNy01LjA4NSAxMS41OTUtNS4yMjcuMjMtLjE0OC40Ni0uNDYuNTM2LS43MjguMDgyLS4yNzQuMDcxLTE1LjY2NS0uMDA2LTE1Ljk1LS4wODItLjI4NS0uMzM0LS42MzUtLjU1OC0uNzY2LS4wOTMtLjA2LTIuNzM2LTEuMjY0LTUuODY2LTIuNjcxLTUuMTYtMi4zMjYtNS43MjQtMi41NjctNi4wMTktMi41ODQtLjE4MS0uMDExLS4zNzgtLjAwNS0uNDM4LjAxMXptNC4yMjQgNC42NTNsMy44MDggMS43NzNjLS4wNjYuMDY2LTcuNTg0IDMuNDQ4LTcuNjc3IDMuNDU0YTM0OS43NSAzNDkuNzUgMCAwIDEtNy43MjYtMy40NTRjLS4wMzMtLjAyNyA3LjU3My0zLjQ5MiA3LjY5My0zLjUwMy4wMjctLjAwNSAxLjc4NC43NzIgMy45MDEgMS43M3ptLTkuNDIzIDUuODQ2bDQuMTMxIDEuODYxdjYuMDA1bC0uMDM4IDYuMDFjLS4wMTYgMC0xLjkwNC0uODQzLTQuMTg2LTEuODY3bC00LjE0OC0xLjg3MnYtNi4wMTVsLjA1NS01Ljk5OWMuMDI3LjAwNSAxLjkxLjg1NCA0LjE4NiAxLjg3N3ptMTUuMzQ5IDQuMTIydjYuMDFsLTQuMTE1IDEuODU1LTQuMjEzIDEuODc4Yy0uMDkzLjAyMi0uMDk4LS4yNzQtLjA4OC01Ljk4OGwuMDE2LTYuMDEgNC4xNTgtMS44NzcgNC4yMDMtMS44NzdjLjAyMiAwIC4wMzggMi43MDQuMDM4IDYuMDF6Ii8+JiN4YTs8L3N2Zz4;strokeColor=none;" 
          id="feature_highlight_" 
          parent="shape_" 
          value=" " 
          vertex="1"
          >
          <mxGeometry
            width="25" 
            height="28" 
            as="geometry" 
            x="30" 
            y="30"
            />
          </mxCell>
        </root>
      </mxGraphModel>
    </diagram>
  </mxfile>